<svg id="Group_18" data-name="Group 18" xmlns="http://www.w3.org/2000/svg" xmlns:xlink="http://www.w3.org/1999/xlink" width="600.816" height="600.816" viewBox="0 0 600.816 600.816">
  <defs>
    <clipPath id="clip-path">
      <rect id="Rectangle_10" data-name="Rectangle 10" width="600.816" height="600.816" fill="none"/>
    </clipPath>
  </defs>
  <g id="Group_17" data-name="Group 17" clip-path="url(#clip-path)">
    <path id="Path_39" data-name="Path 39" d="M481.023,8.149h0a2005.718,2005.718,0,0,0-361.23,0A123.243,123.243,0,0,0,8.148,119.793a2005.9,2005.9,0,0,0,0,361.23h0A123.244,123.244,0,0,0,119.793,592.668a2005.719,2005.719,0,0,0,361.23,0A123.244,123.244,0,0,0,592.667,481.024h0a2005.719,2005.719,0,0,0,0-361.23A123.242,123.242,0,0,0,481.023,8.149" fill="#19ff19"/>
    <path id="Path_40" data-name="Path 40" d="M280.26,261.883c-14.03,0-20.47-11.96-18.63-23.459l11.27-63.479H236.561l-11.5,65.778c-5.52,30.82,10.12,54.739,41.4,54.739,14.26,0,25.3-6.439,31.509-14.029h1.15l3.451,10.809h26.679l20.469-117.3H313.379l-11.5,66.7c-1.84,11.73-10.81,20.24-21.62,20.24" fill="#0e1827"/>
    <path id="Path_41" data-name="Path 41" d="M98.335,145.045l-3.45,19.779c-1.38,7.821-5.98,12.42-14.03,12.42H70.735l-5.29,29.44h17.94l-7.13,39.559c-5.06,29.21,9.66,49.219,38.87,49.219a54.134,54.134,0,0,0,13.109-1.61l5.98-33.809a21.266,21.266,0,0,1-6.67.92c-11.73,0-16.33-6.67-14.489-17.48l6.439-36.8h23.92l5.52-31.74h-23.92l5.52-29.9Z" fill="#0e1827"/>
    <path id="Path_42" data-name="Path 42" d="M231.732,174.254a35.7,35.7,0,0,0-13.57-2.529c-13.57,0-23,8.969-26.68,14.029h-1.149l-3.45-10.81h-26.91l-20.47,117.3h36.34l10.58-60.718c2.53-14.491,11.959-22.54,25.3-22.54a38.272,38.272,0,0,1,13.57,2.3Z" fill="#0e1827"/>
    <path id="Path_43" data-name="Path 43" d="M7.424,128.064q-1.479,17.141-2.663,34.3a25.694,25.694,0,0,1,3.874-.3c12.419,0,20.7,6.9,20.929,20.241l39.1-1.84c-.46-33.35-25.989-52.44-59.108-52.44-.717,0-1.423.022-2.131.039" fill="#0e1827"/>
    <path id="Path_44" data-name="Path 44" d="M522.219,295.462a54.134,54.134,0,0,0,13.109-1.61l5.979-33.809a21.252,21.252,0,0,1-6.669.92c-11.729,0-16.329-6.67-14.49-17.48l6.441-36.8h23.919l5.52-31.74H532.109l5.519-29.9h-32.2l-3.449,19.779c-1.38,7.821-5.98,12.42-14.03,12.42h-10.12l-5.29,29.44h17.94l-7.129,39.559c-5.061,29.21,9.66,49.219,38.869,49.219" fill="#0e1827"/>
    <path id="Path_45" data-name="Path 45" d="M414.348,204.613c11.04,0,18.4,8.051,20.24,16.561l36.109-1.84c-3.68-28.75-25.53-47.61-53.819-47.61-38.869,0-67.389,33.35-67.389,67.159,0,32.66,24.839,56.579,56.349,56.579,33.119,0,55.429-24.15,62.329-47.609l-36.11-1.84c-2.989,6.44-11.269,16.559-23.689,16.559-14.49,0-23-11.73-23-25.068,0-16.791,12.189-32.891,28.979-32.891" fill="#0e1827"/>
    <path id="Path_46" data-name="Path 46" d="M349.487,429.053c0-33.58-51.979-32.43-51.979-47.609,0-5.52,5.29-8.05,10.35-8.05,8.049,0,12.879,3.91,13.109,12.19l34.959-1.381c-.46-25.759-21.849-38.869-48.068-38.869-27.83,0-46.459,14.95-46.459,37.26,0,33.119,51.289,33.579,51.289,49.219,0,5.29-4.83,9.2-11.96,9.2-10.58,0-15.18-6.21-15.18-13.569l-34.729,1.609c.46,26.91,22.079,40.02,50.6,40.02,28.289,0,48.069-15.411,48.069-40.02" fill="#0e1827"/>
    <path id="Path_47" data-name="Path 47" d="M19.215,247.163c0,10.391-9.762,14.124-18.828,14.254q-.33,17.013-.373,34.03c34.09-.324,59.45-20.931,59.45-51.965,0-33.077-36.517-40.916-56.507-51.806q-1.021,18.812-1.69,37.636c10.246,5.036,17.948,10.079,17.948,17.851" fill="#0e1827"/>
    <path id="Path_48" data-name="Path 48" d="M438.265,329.465H405.836v37.489h-35.42v32.2h35.42v37.49h32.429v-37.49h35.419v-32.2H438.265Z" fill="#0e1827"/>
    <path id="Path_49" data-name="Path 49" d="M593.518,295.462a45.333,45.333,0,0,0,7.282-.589q-.047-17.055-.384-34.109c-9.2-3.225-13.233-12.935-11.728-22.34l8.969-50.519q-.364-6.481-.772-12.961H563.619l-11.5,65.779c-5.52,30.82,10.12,54.739,41.4,54.739" fill="#0e1827"/>
    <path id="Path_50" data-name="Path 50" d="M173.309,469.072c14.26,0,25.3-6.439,31.509-14.029h1.15l3.45,10.808H236.1l20.469-117.3H220.228l-11.5,66.7c-1.839,11.729-10.81,20.239-21.619,20.239-14.03,0-20.47-11.959-18.63-23.459l11.27-63.479H143.41l-11.5,65.779c-5.52,30.819,10.12,54.739,41.4,54.739" fill="#0e1827"/>
    <path id="Path_51" data-name="Path 51" d="M78.553,355.224c0-27.37-20.24-50.369-54.739-50.369H.012Q.051,322.336.4,339.814H18.064c12.88,0,20.93,8.51,20.93,18.629a23.213,23.213,0,0,1-23.46,23.23H1.651q.71,17.485,1.725,34.959H15.994c37.72,0,62.559-28.75,62.559-61.408" fill="#0e1827"/>
    <path id="Path_52" data-name="Path 52" d="M99.482,304.855l-28.29,161h36.34l28.289-161Z" fill="#0e1827"/>
  </g>
</svg>
